<mxfile host="Electron" modified="2024-01-02T07:39:43.688Z" agent="Mozilla/5.0 (Windows NT 10.0; Win64; x64) AppleWebKit/537.36 (KHTML, like Gecko) draw.io/22.0.3 Chrome/114.0.5735.289 Electron/25.8.4 Safari/537.36" etag="Apk5ZYsddgPA_vOnU6aP" version="22.0.3" type="device">
  <diagram name="Page-1" id="XBmpcgCxhSJ_6Ir-7t8j">
    <mxGraphModel dx="864" dy="556" grid="1" gridSize="10" guides="1" tooltips="1" connect="1" arrows="1" fold="1" page="1" pageScale="1" pageWidth="850" pageHeight="1100" math="0" shadow="0">
      <root>
        <mxCell id="0" />
        <mxCell id="1" parent="0" />
        <mxCell id="4SpoR1ZruMtvJZLMEWSJ-1" value="Cryptography Diagram" style="swimlane;childLayout=stackLayout;resizeParent=1;resizeParentMax=0;startSize=20;html=1;fontSize=20;strokeWidth=3;" parent="1" vertex="1">
          <mxGeometry x="260" y="70" width="2240" height="2540" as="geometry" />
        </mxCell>
        <mxCell id="4SpoR1ZruMtvJZLMEWSJ-2" value="Client Browser" style="swimlane;startSize=20;html=1;fontSize=20;strokeWidth=3;" parent="4SpoR1ZruMtvJZLMEWSJ-1" vertex="1">
          <mxGeometry y="20" width="620" height="2520" as="geometry" />
        </mxCell>
        <mxCell id="4SpoR1ZruMtvJZLMEWSJ-6" value="" style="ellipse;html=1;shape=startState;fillColor=#000000;strokeColor=#000000;fontSize=20;strokeWidth=3;" parent="4SpoR1ZruMtvJZLMEWSJ-2" vertex="1">
          <mxGeometry x="280" y="40" width="50" height="50" as="geometry" />
        </mxCell>
        <mxCell id="4SpoR1ZruMtvJZLMEWSJ-8" value="Generate RSA Key Pairs&lt;br style=&quot;font-size: 20px;&quot;&gt;(only once)" style="rounded=1;whiteSpace=wrap;html=1;fontSize=20;strokeWidth=3;" parent="4SpoR1ZruMtvJZLMEWSJ-2" vertex="1">
          <mxGeometry x="20" y="235" width="150" height="80" as="geometry" />
        </mxCell>
        <mxCell id="4SpoR1ZruMtvJZLMEWSJ-9" value="Prepare Request" style="rounded=1;whiteSpace=wrap;html=1;fontSize=20;strokeWidth=3;" parent="4SpoR1ZruMtvJZLMEWSJ-2" vertex="1">
          <mxGeometry x="234.41" y="220" width="141.18" height="80" as="geometry" />
        </mxCell>
        <mxCell id="4SpoR1ZruMtvJZLMEWSJ-10" value="Send get Web Server&#39;s RSA public key&lt;br style=&quot;font-size: 20px;&quot;&gt;request" style="rounded=1;whiteSpace=wrap;html=1;fontSize=20;strokeWidth=3;" parent="4SpoR1ZruMtvJZLMEWSJ-2" vertex="1">
          <mxGeometry x="372.5" y="105" width="210" height="90" as="geometry" />
        </mxCell>
        <mxCell id="4SpoR1ZruMtvJZLMEWSJ-13" value="Receive Web Server RSA public key" style="rounded=1;whiteSpace=wrap;html=1;fontSize=20;strokeWidth=3;" parent="4SpoR1ZruMtvJZLMEWSJ-2" vertex="1">
          <mxGeometry x="427.5" y="235" width="155" height="80" as="geometry" />
        </mxCell>
        <mxCell id="4SpoR1ZruMtvJZLMEWSJ-14" value="" style="endArrow=classic;html=1;rounded=0;exitX=0.5;exitY=1;exitDx=0;exitDy=0;entryX=0.5;entryY=0;entryDx=0;entryDy=0;edgeStyle=orthogonalEdgeStyle;fontSize=20;strokeWidth=3;" parent="4SpoR1ZruMtvJZLMEWSJ-2" source="4SpoR1ZruMtvJZLMEWSJ-6" target="4SpoR1ZruMtvJZLMEWSJ-8" edge="1">
          <mxGeometry width="50" height="50" relative="1" as="geometry">
            <mxPoint x="339.99999999999955" y="270" as="sourcePoint" />
            <mxPoint x="389.99999999999955" y="220" as="targetPoint" />
          </mxGeometry>
        </mxCell>
        <mxCell id="4SpoR1ZruMtvJZLMEWSJ-15" value="" style="endArrow=classic;html=1;rounded=0;exitX=0.5;exitY=1;exitDx=0;exitDy=0;entryX=0.5;entryY=0;entryDx=0;entryDy=0;fontSize=20;strokeWidth=3;" parent="4SpoR1ZruMtvJZLMEWSJ-2" source="4SpoR1ZruMtvJZLMEWSJ-6" target="4SpoR1ZruMtvJZLMEWSJ-9" edge="1">
          <mxGeometry width="50" height="50" relative="1" as="geometry">
            <mxPoint x="339.99999999999955" y="270" as="sourcePoint" />
            <mxPoint x="389.99999999999955" y="220" as="targetPoint" />
          </mxGeometry>
        </mxCell>
        <mxCell id="4SpoR1ZruMtvJZLMEWSJ-16" value="" style="endArrow=classic;html=1;rounded=0;exitX=0.5;exitY=1;exitDx=0;exitDy=0;entryX=0;entryY=0.5;entryDx=0;entryDy=0;edgeStyle=orthogonalEdgeStyle;fontSize=20;strokeWidth=3;" parent="4SpoR1ZruMtvJZLMEWSJ-2" source="4SpoR1ZruMtvJZLMEWSJ-6" target="4SpoR1ZruMtvJZLMEWSJ-10" edge="1">
          <mxGeometry width="50" height="50" relative="1" as="geometry">
            <mxPoint x="195" y="80" as="sourcePoint" />
            <mxPoint x="220" y="190" as="targetPoint" />
          </mxGeometry>
        </mxCell>
        <mxCell id="4SpoR1ZruMtvJZLMEWSJ-19" value="" style="rhombus;whiteSpace=wrap;html=1;fontSize=20;strokeWidth=3;" parent="4SpoR1ZruMtvJZLMEWSJ-2" vertex="1">
          <mxGeometry x="272.5" y="460" width="65" height="30" as="geometry" />
        </mxCell>
        <mxCell id="4SpoR1ZruMtvJZLMEWSJ-21" value="" style="rounded=0;whiteSpace=wrap;html=1;fillColor=#000000;fontSize=20;strokeWidth=3;" parent="4SpoR1ZruMtvJZLMEWSJ-2" vertex="1">
          <mxGeometry x="275" y="390" width="60" height="10" as="geometry" />
        </mxCell>
        <mxCell id="4SpoR1ZruMtvJZLMEWSJ-22" value="" style="endArrow=classic;html=1;rounded=0;exitX=0.5;exitY=1;exitDx=0;exitDy=0;entryX=0;entryY=0.5;entryDx=0;entryDy=0;edgeStyle=orthogonalEdgeStyle;fontSize=20;strokeWidth=3;" parent="4SpoR1ZruMtvJZLMEWSJ-2" source="4SpoR1ZruMtvJZLMEWSJ-8" target="4SpoR1ZruMtvJZLMEWSJ-21" edge="1">
          <mxGeometry width="50" height="50" relative="1" as="geometry">
            <mxPoint x="339.99999999999955" y="270" as="sourcePoint" />
            <mxPoint x="139.99999999999955" y="280" as="targetPoint" />
          </mxGeometry>
        </mxCell>
        <mxCell id="4SpoR1ZruMtvJZLMEWSJ-23" value="" style="endArrow=classic;html=1;rounded=0;exitX=0.5;exitY=1;exitDx=0;exitDy=0;entryX=0.5;entryY=0;entryDx=0;entryDy=0;edgeStyle=orthogonalEdgeStyle;fontSize=20;strokeWidth=3;" parent="4SpoR1ZruMtvJZLMEWSJ-2" source="4SpoR1ZruMtvJZLMEWSJ-9" target="4SpoR1ZruMtvJZLMEWSJ-21" edge="1">
          <mxGeometry width="50" height="50" relative="1" as="geometry">
            <mxPoint x="90" y="250" as="sourcePoint" />
            <mxPoint x="190" y="295" as="targetPoint" />
          </mxGeometry>
        </mxCell>
        <mxCell id="4SpoR1ZruMtvJZLMEWSJ-24" value="" style="endArrow=classic;html=1;rounded=0;exitX=0.5;exitY=1;exitDx=0;exitDy=0;entryX=1;entryY=0.5;entryDx=0;entryDy=0;edgeStyle=orthogonalEdgeStyle;fontSize=20;strokeWidth=3;" parent="4SpoR1ZruMtvJZLMEWSJ-2" source="4SpoR1ZruMtvJZLMEWSJ-13" target="4SpoR1ZruMtvJZLMEWSJ-21" edge="1">
          <mxGeometry width="50" height="50" relative="1" as="geometry">
            <mxPoint x="220" y="250" as="sourcePoint" />
            <mxPoint x="220" y="290" as="targetPoint" />
          </mxGeometry>
        </mxCell>
        <mxCell id="4SpoR1ZruMtvJZLMEWSJ-26" value="" style="endArrow=classic;html=1;rounded=0;exitX=0.5;exitY=1;exitDx=0;exitDy=0;entryX=0.5;entryY=0;entryDx=0;entryDy=0;fontSize=20;strokeWidth=3;" parent="4SpoR1ZruMtvJZLMEWSJ-2" source="4SpoR1ZruMtvJZLMEWSJ-21" target="4SpoR1ZruMtvJZLMEWSJ-19" edge="1">
          <mxGeometry width="50" height="50" relative="1" as="geometry">
            <mxPoint x="239.99999999999955" y="340" as="sourcePoint" />
            <mxPoint x="289.99999999999955" y="290" as="targetPoint" />
          </mxGeometry>
        </mxCell>
        <mxCell id="4SpoR1ZruMtvJZLMEWSJ-29" value="Add Client&#39;s RSA public key to request" style="rounded=1;whiteSpace=wrap;html=1;fontSize=20;strokeWidth=3;" parent="4SpoR1ZruMtvJZLMEWSJ-2" vertex="1">
          <mxGeometry x="45" y="860" width="150" height="85" as="geometry" />
        </mxCell>
        <mxCell id="4SpoR1ZruMtvJZLMEWSJ-20" value="[Web Server Request]" style="endArrow=classic;html=1;rounded=0;exitX=0;exitY=0.5;exitDx=0;exitDy=0;edgeStyle=orthogonalEdgeStyle;fontSize=20;entryX=0.5;entryY=0;entryDx=0;entryDy=0;strokeWidth=3;" parent="4SpoR1ZruMtvJZLMEWSJ-2" source="4SpoR1ZruMtvJZLMEWSJ-19" target="4SpoR1ZruMtvJZLMEWSJ-29" edge="1">
          <mxGeometry x="-0.0483" width="50" height="50" relative="1" as="geometry">
            <mxPoint x="339.99999999999955" y="270" as="sourcePoint" />
            <mxPoint x="199.99999999999955" y="530" as="targetPoint" />
            <mxPoint as="offset" />
          </mxGeometry>
        </mxCell>
        <mxCell id="4SpoR1ZruMtvJZLMEWSJ-31" value="Encrypt Request&lt;br&gt;with Web Server&#39;s RSA public key" style="rounded=1;whiteSpace=wrap;html=1;fontSize=20;strokeWidth=3;" parent="4SpoR1ZruMtvJZLMEWSJ-2" vertex="1">
          <mxGeometry x="20" y="1010" width="200" height="100" as="geometry" />
        </mxCell>
        <mxCell id="4SpoR1ZruMtvJZLMEWSJ-32" value="Send Encrypted Request to Web Server" style="rounded=1;whiteSpace=wrap;html=1;fontSize=20;strokeWidth=3;" parent="4SpoR1ZruMtvJZLMEWSJ-2" vertex="1">
          <mxGeometry x="390" y="1017.5" width="150" height="85" as="geometry" />
        </mxCell>
        <mxCell id="4SpoR1ZruMtvJZLMEWSJ-33" value="" style="endArrow=classic;html=1;rounded=0;exitX=0.5;exitY=1;exitDx=0;exitDy=0;entryX=0.5;entryY=0;entryDx=0;entryDy=0;strokeWidth=3;" parent="4SpoR1ZruMtvJZLMEWSJ-2" source="4SpoR1ZruMtvJZLMEWSJ-29" target="4SpoR1ZruMtvJZLMEWSJ-31" edge="1">
          <mxGeometry width="50" height="50" relative="1" as="geometry">
            <mxPoint x="469.99999999999955" y="940" as="sourcePoint" />
            <mxPoint x="519.9999999999995" y="890" as="targetPoint" />
          </mxGeometry>
        </mxCell>
        <mxCell id="4SpoR1ZruMtvJZLMEWSJ-34" value="" style="endArrow=classic;html=1;rounded=0;exitX=1;exitY=0.5;exitDx=0;exitDy=0;entryX=0;entryY=0.5;entryDx=0;entryDy=0;strokeWidth=3;" parent="4SpoR1ZruMtvJZLMEWSJ-2" source="4SpoR1ZruMtvJZLMEWSJ-31" target="4SpoR1ZruMtvJZLMEWSJ-32" edge="1">
          <mxGeometry width="50" height="50" relative="1" as="geometry">
            <mxPoint x="599.9999999999995" y="910" as="sourcePoint" />
            <mxPoint x="649.9999999999995" y="860" as="targetPoint" />
          </mxGeometry>
        </mxCell>
        <mxCell id="4SpoR1ZruMtvJZLMEWSJ-36" value="Send get Ubuntu Server&#39;s RSA public key&lt;br style=&quot;font-size: 20px;&quot;&gt;request" style="rounded=1;whiteSpace=wrap;html=1;fontSize=20;strokeWidth=3;" parent="4SpoR1ZruMtvJZLMEWSJ-2" vertex="1">
          <mxGeometry x="350" y="550" width="240" height="90" as="geometry" />
        </mxCell>
        <mxCell id="4SpoR1ZruMtvJZLMEWSJ-47" value="Receive Ubuntu Server&#39;s RSA public key" style="rounded=1;whiteSpace=wrap;html=1;fontSize=20;strokeWidth=3;" parent="4SpoR1ZruMtvJZLMEWSJ-2" vertex="1">
          <mxGeometry x="370" y="690" width="200" height="90" as="geometry" />
        </mxCell>
        <mxCell id="4SpoR1ZruMtvJZLMEWSJ-25" value="[Ubuntu Request]" style="endArrow=classic;html=1;rounded=0;exitX=1;exitY=0.5;exitDx=0;exitDy=0;edgeStyle=orthogonalEdgeStyle;fontSize=20;entryX=0.5;entryY=0;entryDx=0;entryDy=0;strokeWidth=3;" parent="4SpoR1ZruMtvJZLMEWSJ-2" source="4SpoR1ZruMtvJZLMEWSJ-19" target="4SpoR1ZruMtvJZLMEWSJ-36" edge="1">
          <mxGeometry width="50" height="50" relative="1" as="geometry">
            <mxPoint x="139.99999999999955" y="350" as="sourcePoint" />
            <mxPoint x="469.99999999999955" y="540" as="targetPoint" />
          </mxGeometry>
        </mxCell>
        <mxCell id="4SpoR1ZruMtvJZLMEWSJ-51" value="Encrypt Request&lt;br&gt;with Ubuntu Server&#39;s RSA public key" style="rounded=1;whiteSpace=wrap;html=1;fontSize=20;strokeWidth=3;" parent="4SpoR1ZruMtvJZLMEWSJ-2" vertex="1">
          <mxGeometry x="370" y="852.5" width="200" height="100" as="geometry" />
        </mxCell>
        <mxCell id="4SpoR1ZruMtvJZLMEWSJ-52" value="" style="endArrow=classic;html=1;rounded=0;exitX=0.5;exitY=1;exitDx=0;exitDy=0;entryX=0.5;entryY=0;entryDx=0;entryDy=0;strokeWidth=3;" parent="4SpoR1ZruMtvJZLMEWSJ-2" source="4SpoR1ZruMtvJZLMEWSJ-47" target="4SpoR1ZruMtvJZLMEWSJ-51" edge="1">
          <mxGeometry width="50" height="50" relative="1" as="geometry">
            <mxPoint x="449.99999999999955" y="820" as="sourcePoint" />
            <mxPoint x="499.99999999999955" y="770" as="targetPoint" />
          </mxGeometry>
        </mxCell>
        <mxCell id="4SpoR1ZruMtvJZLMEWSJ-53" value="" style="endArrow=classic;html=1;rounded=0;exitX=0;exitY=0.5;exitDx=0;exitDy=0;entryX=1;entryY=0.5;entryDx=0;entryDy=0;strokeWidth=3;" parent="4SpoR1ZruMtvJZLMEWSJ-2" source="4SpoR1ZruMtvJZLMEWSJ-51" target="4SpoR1ZruMtvJZLMEWSJ-29" edge="1">
          <mxGeometry width="50" height="50" relative="1" as="geometry">
            <mxPoint x="480" y="790" as="sourcePoint" />
            <mxPoint x="480" y="870" as="targetPoint" />
          </mxGeometry>
        </mxCell>
        <mxCell id="4SpoR1ZruMtvJZLMEWSJ-85" value="Decrypt Execution Results" style="rounded=1;whiteSpace=wrap;html=1;fontSize=20;strokeWidth=3;" parent="4SpoR1ZruMtvJZLMEWSJ-2" vertex="1">
          <mxGeometry x="380" y="2012.5" width="150" height="85" as="geometry" />
        </mxCell>
        <mxCell id="4SpoR1ZruMtvJZLMEWSJ-86" value="Get Execution Results" style="rounded=1;whiteSpace=wrap;html=1;fontSize=20;strokeWidth=3;" parent="4SpoR1ZruMtvJZLMEWSJ-2" vertex="1">
          <mxGeometry x="140" y="2012.5" width="150" height="85" as="geometry" />
        </mxCell>
        <mxCell id="4SpoR1ZruMtvJZLMEWSJ-89" value="" style="endArrow=classic;html=1;rounded=0;exitX=0;exitY=0.5;exitDx=0;exitDy=0;entryX=1;entryY=0.5;entryDx=0;entryDy=0;strokeWidth=3;" parent="4SpoR1ZruMtvJZLMEWSJ-2" source="4SpoR1ZruMtvJZLMEWSJ-85" target="4SpoR1ZruMtvJZLMEWSJ-86" edge="1">
          <mxGeometry width="50" height="50" relative="1" as="geometry">
            <mxPoint x="170" y="1860" as="sourcePoint" />
            <mxPoint x="220" y="1810" as="targetPoint" />
          </mxGeometry>
        </mxCell>
        <mxCell id="4SpoR1ZruMtvJZLMEWSJ-91" value="" style="ellipse;html=1;shape=endState;fillColor=#000000;strokeColor=#000000;strokeWidth=3;" parent="4SpoR1ZruMtvJZLMEWSJ-2" vertex="1">
          <mxGeometry x="40" y="2030" width="50" height="50" as="geometry" />
        </mxCell>
        <mxCell id="4SpoR1ZruMtvJZLMEWSJ-92" value="" style="endArrow=classic;html=1;rounded=0;exitX=0;exitY=0.5;exitDx=0;exitDy=0;entryX=1;entryY=0.5;entryDx=0;entryDy=0;strokeWidth=3;" parent="4SpoR1ZruMtvJZLMEWSJ-2" source="4SpoR1ZruMtvJZLMEWSJ-86" target="4SpoR1ZruMtvJZLMEWSJ-91" edge="1">
          <mxGeometry width="50" height="50" relative="1" as="geometry">
            <mxPoint x="390" y="2065" as="sourcePoint" />
            <mxPoint x="300" y="2065" as="targetPoint" />
          </mxGeometry>
        </mxCell>
        <mxCell id="4SpoR1ZruMtvJZLMEWSJ-3" value="Web Server" style="swimlane;startSize=20;html=1;fontSize=20;strokeWidth=3;" parent="4SpoR1ZruMtvJZLMEWSJ-1" vertex="1">
          <mxGeometry x="620" y="20" width="550" height="2520" as="geometry" />
        </mxCell>
        <mxCell id="4SpoR1ZruMtvJZLMEWSJ-30" value="NodeJS" style="swimlane;fontSize=20;strokeWidth=3;" parent="4SpoR1ZruMtvJZLMEWSJ-3" vertex="1">
          <mxGeometry x="30" y="70" width="480" height="2390" as="geometry" />
        </mxCell>
        <mxCell id="4SpoR1ZruMtvJZLMEWSJ-12" value="Provide Web Server RSA Public key" style="rounded=1;whiteSpace=wrap;html=1;fontSize=20;strokeWidth=3;" parent="4SpoR1ZruMtvJZLMEWSJ-30" vertex="1">
          <mxGeometry x="135" y="37.5" width="160" height="85" as="geometry" />
        </mxCell>
        <mxCell id="4SpoR1ZruMtvJZLMEWSJ-37" value="Transfer Ubuntu Server&#39;s RSA public key&lt;br style=&quot;font-size: 20px;&quot;&gt;request" style="rounded=1;whiteSpace=wrap;html=1;fontSize=20;strokeWidth=3;" parent="4SpoR1ZruMtvJZLMEWSJ-30" vertex="1">
          <mxGeometry x="95" y="480" width="240" height="90" as="geometry" />
        </mxCell>
        <mxCell id="4SpoR1ZruMtvJZLMEWSJ-45" value="Transfer Ubuntu Server&#39;s RSA public key" style="rounded=1;whiteSpace=wrap;html=1;fontSize=20;strokeWidth=3;" parent="4SpoR1ZruMtvJZLMEWSJ-30" vertex="1">
          <mxGeometry x="95" y="620" width="240" height="90" as="geometry" />
        </mxCell>
        <mxCell id="4SpoR1ZruMtvJZLMEWSJ-55" value="Decrypt Request" style="rounded=1;whiteSpace=wrap;html=1;fontSize=20;strokeWidth=3;" parent="4SpoR1ZruMtvJZLMEWSJ-30" vertex="1">
          <mxGeometry x="20" y="947.5" width="150" height="85" as="geometry" />
        </mxCell>
        <mxCell id="4SpoR1ZruMtvJZLMEWSJ-56" value="Preprocess Request" style="rounded=1;whiteSpace=wrap;html=1;fontSize=20;strokeWidth=3;" parent="4SpoR1ZruMtvJZLMEWSJ-30" vertex="1">
          <mxGeometry x="260" y="947.5" width="150" height="85" as="geometry" />
        </mxCell>
        <mxCell id="4SpoR1ZruMtvJZLMEWSJ-58" value="" style="endArrow=classic;html=1;rounded=0;exitX=1;exitY=0.5;exitDx=0;exitDy=0;entryX=0;entryY=0.5;entryDx=0;entryDy=0;strokeWidth=3;" parent="4SpoR1ZruMtvJZLMEWSJ-30" source="4SpoR1ZruMtvJZLMEWSJ-55" target="4SpoR1ZruMtvJZLMEWSJ-56" edge="1">
          <mxGeometry width="50" height="50" relative="1" as="geometry">
            <mxPoint x="-100" y="1000" as="sourcePoint" />
            <mxPoint x="30" y="1000" as="targetPoint" />
          </mxGeometry>
        </mxCell>
        <mxCell id="4SpoR1ZruMtvJZLMEWSJ-59" value="" style="rhombus;whiteSpace=wrap;html=1;fontSize=20;strokeWidth=3;" parent="4SpoR1ZruMtvJZLMEWSJ-30" vertex="1">
          <mxGeometry x="182.5" y="1090" width="65" height="30" as="geometry" />
        </mxCell>
        <mxCell id="4SpoR1ZruMtvJZLMEWSJ-60" value="" style="endArrow=classic;html=1;rounded=0;exitX=0.5;exitY=1;exitDx=0;exitDy=0;entryX=0.5;entryY=0;entryDx=0;entryDy=0;edgeStyle=orthogonalEdgeStyle;strokeWidth=3;" parent="4SpoR1ZruMtvJZLMEWSJ-30" source="4SpoR1ZruMtvJZLMEWSJ-56" target="4SpoR1ZruMtvJZLMEWSJ-59" edge="1">
          <mxGeometry width="50" height="50" relative="1" as="geometry">
            <mxPoint x="-100" y="1000" as="sourcePoint" />
            <mxPoint x="30" y="1000" as="targetPoint" />
          </mxGeometry>
        </mxCell>
        <mxCell id="4SpoR1ZruMtvJZLMEWSJ-61" value="Process Request" style="rounded=1;whiteSpace=wrap;html=1;fontSize=20;strokeWidth=3;" parent="4SpoR1ZruMtvJZLMEWSJ-30" vertex="1">
          <mxGeometry x="32.5" y="1240" width="150" height="85" as="geometry" />
        </mxCell>
        <mxCell id="4SpoR1ZruMtvJZLMEWSJ-63" value="Get Execution Results" style="rounded=1;whiteSpace=wrap;html=1;fontSize=20;strokeWidth=3;" parent="4SpoR1ZruMtvJZLMEWSJ-30" vertex="1">
          <mxGeometry x="32.5" y="1500" width="150" height="85" as="geometry" />
        </mxCell>
        <mxCell id="4SpoR1ZruMtvJZLMEWSJ-64" value="Encrypt Execution Results using Client&#39;s RSA public Key" style="rounded=1;whiteSpace=wrap;html=1;fontSize=20;strokeWidth=3;" parent="4SpoR1ZruMtvJZLMEWSJ-30" vertex="1">
          <mxGeometry x="7.5" y="1780" width="200" height="110" as="geometry" />
        </mxCell>
        <mxCell id="4SpoR1ZruMtvJZLMEWSJ-66" value="[Web Server Request]" style="endArrow=classic;html=1;rounded=0;exitX=0;exitY=0.5;exitDx=0;exitDy=0;edgeStyle=orthogonalEdgeStyle;fontSize=20;entryX=0.5;entryY=0;entryDx=0;entryDy=0;strokeWidth=3;" parent="4SpoR1ZruMtvJZLMEWSJ-30" source="4SpoR1ZruMtvJZLMEWSJ-59" target="4SpoR1ZruMtvJZLMEWSJ-61" edge="1">
          <mxGeometry x="-0.0483" width="50" height="50" relative="1" as="geometry">
            <mxPoint x="283" y="760" as="sourcePoint" />
            <mxPoint x="130" y="1145" as="targetPoint" />
            <mxPoint as="offset" />
          </mxGeometry>
        </mxCell>
        <mxCell id="4SpoR1ZruMtvJZLMEWSJ-68" value="" style="endArrow=classic;html=1;rounded=0;exitX=0.5;exitY=1;exitDx=0;exitDy=0;entryX=0.5;entryY=0;entryDx=0;entryDy=0;strokeWidth=3;" parent="4SpoR1ZruMtvJZLMEWSJ-30" source="4SpoR1ZruMtvJZLMEWSJ-61" target="4SpoR1ZruMtvJZLMEWSJ-63" edge="1">
          <mxGeometry width="50" height="50" relative="1" as="geometry">
            <mxPoint x="179.99999999999955" y="1350" as="sourcePoint" />
            <mxPoint x="229.99999999999955" y="1300" as="targetPoint" />
          </mxGeometry>
        </mxCell>
        <mxCell id="4SpoR1ZruMtvJZLMEWSJ-69" value="" style="endArrow=classic;html=1;rounded=0;exitX=0.5;exitY=1;exitDx=0;exitDy=0;entryX=0.5;entryY=0;entryDx=0;entryDy=0;strokeWidth=3;" parent="4SpoR1ZruMtvJZLMEWSJ-30" source="4SpoR1ZruMtvJZLMEWSJ-63" target="4SpoR1ZruMtvJZLMEWSJ-64" edge="1">
          <mxGeometry width="50" height="50" relative="1" as="geometry">
            <mxPoint x="118" y="1335" as="sourcePoint" />
            <mxPoint x="118" y="1390" as="targetPoint" />
          </mxGeometry>
        </mxCell>
        <mxCell id="4SpoR1ZruMtvJZLMEWSJ-73" value="Get Ubuntu Server&#39;s RSA public key&lt;br style=&quot;font-size: 20px;&quot;&gt;" style="rounded=1;whiteSpace=wrap;html=1;fontSize=20;strokeWidth=3;" parent="4SpoR1ZruMtvJZLMEWSJ-30" vertex="1">
          <mxGeometry x="271" y="1240" width="187.5" height="90" as="geometry" />
        </mxCell>
        <mxCell id="4SpoR1ZruMtvJZLMEWSJ-74" value="[Ubuntu Request]" style="endArrow=classic;html=1;rounded=0;edgeStyle=orthogonalEdgeStyle;fontSize=20;entryX=0.5;entryY=0;entryDx=0;entryDy=0;exitX=1;exitY=0.5;exitDx=0;exitDy=0;strokeWidth=3;" parent="4SpoR1ZruMtvJZLMEWSJ-30" source="4SpoR1ZruMtvJZLMEWSJ-59" target="4SpoR1ZruMtvJZLMEWSJ-73" edge="1">
          <mxGeometry x="-0.0483" width="50" height="50" relative="1" as="geometry">
            <mxPoint x="389.99999999999955" y="1090" as="sourcePoint" />
            <mxPoint x="118" y="1250" as="targetPoint" />
            <mxPoint as="offset" />
          </mxGeometry>
        </mxCell>
        <mxCell id="4SpoR1ZruMtvJZLMEWSJ-75" value="Add Web Server&#39;s RSA public key to request" style="rounded=1;whiteSpace=wrap;html=1;fontSize=20;strokeWidth=3;" parent="4SpoR1ZruMtvJZLMEWSJ-30" vertex="1">
          <mxGeometry x="275" y="1650" width="180" height="105" as="geometry" />
        </mxCell>
        <mxCell id="4SpoR1ZruMtvJZLMEWSJ-76" value="Receive Ubuntu Server&#39;s RSA public key" style="rounded=1;whiteSpace=wrap;html=1;fontSize=20;strokeWidth=3;" parent="4SpoR1ZruMtvJZLMEWSJ-30" vertex="1">
          <mxGeometry x="265" y="1380" width="200" height="90" as="geometry" />
        </mxCell>
        <mxCell id="4SpoR1ZruMtvJZLMEWSJ-77" value="Encrypt Request&lt;br&gt;with Ubuntu Server&#39;s RSA public key" style="rounded=1;whiteSpace=wrap;html=1;fontSize=20;strokeWidth=3;" parent="4SpoR1ZruMtvJZLMEWSJ-30" vertex="1">
          <mxGeometry x="265" y="1510" width="200" height="100" as="geometry" />
        </mxCell>
        <mxCell id="4SpoR1ZruMtvJZLMEWSJ-78" value="Send Encrypted Request to Ubuntu Server" style="rounded=1;whiteSpace=wrap;html=1;fontSize=20;strokeWidth=3;" parent="4SpoR1ZruMtvJZLMEWSJ-30" vertex="1">
          <mxGeometry x="290" y="1792.5" width="150" height="85" as="geometry" />
        </mxCell>
        <mxCell id="4SpoR1ZruMtvJZLMEWSJ-84" value="Send Encrypted Execution Results to Client" style="rounded=1;whiteSpace=wrap;html=1;fontSize=20;strokeWidth=3;" parent="4SpoR1ZruMtvJZLMEWSJ-30" vertex="1">
          <mxGeometry x="7.5" y="1930" width="200" height="110" as="geometry" />
        </mxCell>
        <mxCell id="4SpoR1ZruMtvJZLMEWSJ-96" value="" style="endArrow=classic;html=1;rounded=0;exitX=0.5;exitY=1;exitDx=0;exitDy=0;entryX=0.5;entryY=0;entryDx=0;entryDy=0;strokeWidth=3;" parent="4SpoR1ZruMtvJZLMEWSJ-30" source="4SpoR1ZruMtvJZLMEWSJ-76" target="4SpoR1ZruMtvJZLMEWSJ-77" edge="1">
          <mxGeometry width="50" height="50" relative="1" as="geometry">
            <mxPoint x="290" y="1310" as="sourcePoint" />
            <mxPoint x="340" y="1260" as="targetPoint" />
          </mxGeometry>
        </mxCell>
        <mxCell id="4SpoR1ZruMtvJZLMEWSJ-97" value="" style="endArrow=classic;html=1;rounded=0;exitX=0.5;exitY=1;exitDx=0;exitDy=0;entryX=0.5;entryY=0;entryDx=0;entryDy=0;strokeWidth=3;" parent="4SpoR1ZruMtvJZLMEWSJ-30" source="4SpoR1ZruMtvJZLMEWSJ-77" target="4SpoR1ZruMtvJZLMEWSJ-75" edge="1">
          <mxGeometry width="50" height="50" relative="1" as="geometry">
            <mxPoint x="290" y="1670" as="sourcePoint" />
            <mxPoint x="340" y="1620" as="targetPoint" />
          </mxGeometry>
        </mxCell>
        <mxCell id="4SpoR1ZruMtvJZLMEWSJ-98" value="" style="endArrow=classic;html=1;rounded=0;exitX=0.5;exitY=1;exitDx=0;exitDy=0;entryX=0.5;entryY=0;entryDx=0;entryDy=0;strokeWidth=3;" parent="4SpoR1ZruMtvJZLMEWSJ-30" source="4SpoR1ZruMtvJZLMEWSJ-75" target="4SpoR1ZruMtvJZLMEWSJ-78" edge="1">
          <mxGeometry width="50" height="50" relative="1" as="geometry">
            <mxPoint x="290" y="1670" as="sourcePoint" />
            <mxPoint x="340" y="1620" as="targetPoint" />
          </mxGeometry>
        </mxCell>
        <mxCell id="4SpoR1ZruMtvJZLMEWSJ-105" value="Decrypt Execution Results" style="rounded=1;whiteSpace=wrap;html=1;fontSize=20;strokeWidth=3;" parent="4SpoR1ZruMtvJZLMEWSJ-30" vertex="1">
          <mxGeometry x="289.75" y="2262.5" width="150" height="85" as="geometry" />
        </mxCell>
        <mxCell id="4SpoR1ZruMtvJZLMEWSJ-107" value="" style="endArrow=classic;html=1;rounded=0;exitX=0;exitY=0.5;exitDx=0;exitDy=0;entryX=1;entryY=0.5;entryDx=0;entryDy=0;edgeStyle=orthogonalEdgeStyle;strokeWidth=3;" parent="4SpoR1ZruMtvJZLMEWSJ-30" source="4SpoR1ZruMtvJZLMEWSJ-105" target="4SpoR1ZruMtvJZLMEWSJ-63" edge="1">
          <mxGeometry width="50" height="50" relative="1" as="geometry">
            <mxPoint x="290" y="1990" as="sourcePoint" />
            <mxPoint x="340" y="1940" as="targetPoint" />
          </mxGeometry>
        </mxCell>
        <mxCell id="4SpoR1ZruMtvJZLMEWSJ-144" value="" style="endArrow=classic;html=1;rounded=0;exitX=0.5;exitY=1;exitDx=0;exitDy=0;entryX=0.5;entryY=0;entryDx=0;entryDy=0;strokeWidth=3;" parent="4SpoR1ZruMtvJZLMEWSJ-30" source="4SpoR1ZruMtvJZLMEWSJ-64" target="4SpoR1ZruMtvJZLMEWSJ-84" edge="1">
          <mxGeometry width="50" height="50" relative="1" as="geometry">
            <mxPoint x="-320" y="1280" as="sourcePoint" />
            <mxPoint x="-270" y="1230" as="targetPoint" />
          </mxGeometry>
        </mxCell>
        <mxCell id="4SpoR1ZruMtvJZLMEWSJ-5" value="Ubuntu Server" style="swimlane;startSize=20;html=1;fontSize=20;strokeWidth=3;" parent="4SpoR1ZruMtvJZLMEWSJ-1" vertex="1">
          <mxGeometry x="1170" y="20" width="490" height="2520" as="geometry" />
        </mxCell>
        <mxCell id="4SpoR1ZruMtvJZLMEWSJ-42" value="NodeJS" style="swimlane;fontSize=20;strokeWidth=3;" parent="4SpoR1ZruMtvJZLMEWSJ-5" vertex="1">
          <mxGeometry x="20" y="70" width="450" height="2400" as="geometry" />
        </mxCell>
        <mxCell id="4SpoR1ZruMtvJZLMEWSJ-43" value="Provide Ubuntu Server RSA Public key for Client" style="rounded=1;whiteSpace=wrap;html=1;fontSize=20;strokeWidth=3;" parent="4SpoR1ZruMtvJZLMEWSJ-42" vertex="1">
          <mxGeometry x="41" y="480" width="199" height="90" as="geometry" />
        </mxCell>
        <mxCell id="4SpoR1ZruMtvJZLMEWSJ-72" value="Provide Ubuntu Server RSA Public key for Web Server" style="rounded=1;whiteSpace=wrap;html=1;fontSize=20;strokeWidth=3;" parent="4SpoR1ZruMtvJZLMEWSJ-42" vertex="1">
          <mxGeometry x="30" y="1240" width="199" height="90" as="geometry" />
        </mxCell>
        <mxCell id="4SpoR1ZruMtvJZLMEWSJ-79" value="Decrypt Request" style="rounded=1;whiteSpace=wrap;html=1;fontSize=20;strokeWidth=3;" parent="4SpoR1ZruMtvJZLMEWSJ-42" vertex="1">
          <mxGeometry x="32.5" y="1792.5" width="150" height="85" as="geometry" />
        </mxCell>
        <mxCell id="4SpoR1ZruMtvJZLMEWSJ-81" value="Process Request" style="rounded=1;whiteSpace=wrap;html=1;fontSize=20;strokeWidth=3;" parent="4SpoR1ZruMtvJZLMEWSJ-42" vertex="1">
          <mxGeometry x="32.5" y="1970" width="150" height="85" as="geometry" />
        </mxCell>
        <mxCell id="4SpoR1ZruMtvJZLMEWSJ-82" value="Get Execution Results" style="rounded=1;whiteSpace=wrap;html=1;fontSize=20;strokeWidth=3;" parent="4SpoR1ZruMtvJZLMEWSJ-42" vertex="1">
          <mxGeometry x="32.5" y="2110" width="150" height="85" as="geometry" />
        </mxCell>
        <mxCell id="4SpoR1ZruMtvJZLMEWSJ-83" value="Encrypt Execution Results using Client&#39;s RSA public Key" style="rounded=1;whiteSpace=wrap;html=1;fontSize=20;strokeWidth=3;" parent="4SpoR1ZruMtvJZLMEWSJ-42" vertex="1">
          <mxGeometry x="229" y="2097.5" width="200" height="110" as="geometry" />
        </mxCell>
        <mxCell id="4SpoR1ZruMtvJZLMEWSJ-93" value="Send Encrypted Execution Results to Web Server" style="rounded=1;whiteSpace=wrap;html=1;fontSize=20;strokeWidth=3;" parent="4SpoR1ZruMtvJZLMEWSJ-42" vertex="1">
          <mxGeometry x="7.5" y="2250" width="200" height="110" as="geometry" />
        </mxCell>
        <mxCell id="4SpoR1ZruMtvJZLMEWSJ-100" value="" style="endArrow=classic;html=1;rounded=0;exitX=0.5;exitY=1;exitDx=0;exitDy=0;entryX=0.5;entryY=0;entryDx=0;entryDy=0;strokeWidth=3;" parent="4SpoR1ZruMtvJZLMEWSJ-42" source="4SpoR1ZruMtvJZLMEWSJ-79" target="4SpoR1ZruMtvJZLMEWSJ-81" edge="1">
          <mxGeometry width="50" height="50" relative="1" as="geometry">
            <mxPoint x="-250" y="1930" as="sourcePoint" />
            <mxPoint x="-200" y="1880" as="targetPoint" />
          </mxGeometry>
        </mxCell>
        <mxCell id="4SpoR1ZruMtvJZLMEWSJ-101" value="" style="endArrow=classic;html=1;rounded=0;exitX=0.5;exitY=1;exitDx=0;exitDy=0;entryX=0.5;entryY=0;entryDx=0;entryDy=0;strokeWidth=3;" parent="4SpoR1ZruMtvJZLMEWSJ-42" source="4SpoR1ZruMtvJZLMEWSJ-81" target="4SpoR1ZruMtvJZLMEWSJ-82" edge="1">
          <mxGeometry width="50" height="50" relative="1" as="geometry">
            <mxPoint x="-250" y="1930" as="sourcePoint" />
            <mxPoint x="-200" y="1880" as="targetPoint" />
          </mxGeometry>
        </mxCell>
        <mxCell id="4SpoR1ZruMtvJZLMEWSJ-103" value="" style="endArrow=classic;html=1;rounded=0;exitX=1;exitY=0.5;exitDx=0;exitDy=0;entryX=0;entryY=0.5;entryDx=0;entryDy=0;strokeWidth=3;" parent="4SpoR1ZruMtvJZLMEWSJ-42" source="4SpoR1ZruMtvJZLMEWSJ-82" target="4SpoR1ZruMtvJZLMEWSJ-83" edge="1">
          <mxGeometry width="50" height="50" relative="1" as="geometry">
            <mxPoint x="-250" y="1930" as="sourcePoint" />
            <mxPoint x="-200" y="1880" as="targetPoint" />
          </mxGeometry>
        </mxCell>
        <mxCell id="4SpoR1ZruMtvJZLMEWSJ-104" value="" style="endArrow=classic;html=1;rounded=0;exitX=0.5;exitY=1;exitDx=0;exitDy=0;entryX=1;entryY=0.5;entryDx=0;entryDy=0;edgeStyle=orthogonalEdgeStyle;strokeWidth=3;" parent="4SpoR1ZruMtvJZLMEWSJ-42" source="4SpoR1ZruMtvJZLMEWSJ-83" target="4SpoR1ZruMtvJZLMEWSJ-93" edge="1">
          <mxGeometry width="50" height="50" relative="1" as="geometry">
            <mxPoint x="-250" y="1930" as="sourcePoint" />
            <mxPoint x="-200" y="1880" as="targetPoint" />
          </mxGeometry>
        </mxCell>
        <mxCell id="4SpoR1ZruMtvJZLMEWSJ-118" value="Provide Ubuntu RSA public key&lt;br&gt;to Admin" style="rounded=1;whiteSpace=wrap;html=1;fontSize=20;strokeWidth=3;" parent="4SpoR1ZruMtvJZLMEWSJ-42" vertex="1">
          <mxGeometry x="229" y="47.5" width="160" height="85" as="geometry" />
        </mxCell>
        <mxCell id="4SpoR1ZruMtvJZLMEWSJ-136" value="Decrypt Request" style="rounded=1;whiteSpace=wrap;html=1;fontSize=20;strokeWidth=3;" parent="4SpoR1ZruMtvJZLMEWSJ-42" vertex="1">
          <mxGeometry x="265" y="710" width="150" height="85" as="geometry" />
        </mxCell>
        <mxCell id="4SpoR1ZruMtvJZLMEWSJ-137" value="Process Request" style="rounded=1;whiteSpace=wrap;html=1;fontSize=20;strokeWidth=3;" parent="4SpoR1ZruMtvJZLMEWSJ-42" vertex="1">
          <mxGeometry x="265" y="900" width="150" height="85" as="geometry" />
        </mxCell>
        <mxCell id="4SpoR1ZruMtvJZLMEWSJ-138" value="Get Execution Results" style="rounded=1;whiteSpace=wrap;html=1;fontSize=20;strokeWidth=3;" parent="4SpoR1ZruMtvJZLMEWSJ-42" vertex="1">
          <mxGeometry x="265" y="1070" width="150" height="85" as="geometry" />
        </mxCell>
        <mxCell id="4SpoR1ZruMtvJZLMEWSJ-139" value="Encrypt Execution Results using Browser&#39;s RSA public Key" style="rounded=1;whiteSpace=wrap;html=1;fontSize=20;strokeWidth=3;" parent="4SpoR1ZruMtvJZLMEWSJ-42" vertex="1">
          <mxGeometry x="240" y="1240" width="200" height="110" as="geometry" />
        </mxCell>
        <mxCell id="4SpoR1ZruMtvJZLMEWSJ-141" value="Send Encrypted Execution Results to Client" style="rounded=1;whiteSpace=wrap;html=1;fontSize=20;strokeWidth=3;" parent="4SpoR1ZruMtvJZLMEWSJ-42" vertex="1">
          <mxGeometry x="240" y="1450" width="200" height="110" as="geometry" />
        </mxCell>
        <mxCell id="4SpoR1ZruMtvJZLMEWSJ-140" value="" style="endArrow=classic;html=1;rounded=0;exitX=0.5;exitY=1;exitDx=0;exitDy=0;entryX=0.5;entryY=0;entryDx=0;entryDy=0;strokeWidth=3;" parent="4SpoR1ZruMtvJZLMEWSJ-42" source="4SpoR1ZruMtvJZLMEWSJ-137" target="4SpoR1ZruMtvJZLMEWSJ-138" edge="1">
          <mxGeometry width="50" height="50" relative="1" as="geometry">
            <mxPoint x="2199.9999999999995" y="1220" as="sourcePoint" />
            <mxPoint x="2249.9999999999995" y="1170" as="targetPoint" />
          </mxGeometry>
        </mxCell>
        <mxCell id="4SpoR1ZruMtvJZLMEWSJ-148" value="" style="endArrow=classic;html=1;rounded=0;exitX=0.5;exitY=1;exitDx=0;exitDy=0;entryX=0.5;entryY=0;entryDx=0;entryDy=0;strokeWidth=3;" parent="4SpoR1ZruMtvJZLMEWSJ-42" source="4SpoR1ZruMtvJZLMEWSJ-138" target="4SpoR1ZruMtvJZLMEWSJ-139" edge="1">
          <mxGeometry width="50" height="50" relative="1" as="geometry">
            <mxPoint x="1460" y="1490" as="sourcePoint" />
            <mxPoint x="1510" y="1440" as="targetPoint" />
          </mxGeometry>
        </mxCell>
        <mxCell id="4SpoR1ZruMtvJZLMEWSJ-149" value="" style="endArrow=classic;html=1;rounded=0;exitX=0.5;exitY=1;exitDx=0;exitDy=0;entryX=0.5;entryY=0;entryDx=0;entryDy=0;strokeWidth=3;" parent="4SpoR1ZruMtvJZLMEWSJ-42" source="4SpoR1ZruMtvJZLMEWSJ-139" target="4SpoR1ZruMtvJZLMEWSJ-141" edge="1">
          <mxGeometry width="50" height="50" relative="1" as="geometry">
            <mxPoint x="1460" y="1490" as="sourcePoint" />
            <mxPoint x="1510" y="1440" as="targetPoint" />
          </mxGeometry>
        </mxCell>
        <mxCell id="4SpoR1ZruMtvJZLMEWSJ-150" value="" style="endArrow=classic;html=1;rounded=0;exitX=0.5;exitY=1;exitDx=0;exitDy=0;entryX=0.5;entryY=0;entryDx=0;entryDy=0;strokeWidth=3;" parent="4SpoR1ZruMtvJZLMEWSJ-42" source="4SpoR1ZruMtvJZLMEWSJ-136" target="4SpoR1ZruMtvJZLMEWSJ-137" edge="1">
          <mxGeometry width="50" height="50" relative="1" as="geometry">
            <mxPoint x="380" y="1120" as="sourcePoint" />
            <mxPoint x="430" y="1070" as="targetPoint" />
          </mxGeometry>
        </mxCell>
        <mxCell id="4SpoR1ZruMtvJZLMEWSJ-4" value="Admin Browser" style="swimlane;startSize=20;html=1;fontSize=20;strokeWidth=3;" parent="4SpoR1ZruMtvJZLMEWSJ-1" vertex="1">
          <mxGeometry x="1660" y="20" width="580" height="2520" as="geometry" />
        </mxCell>
        <mxCell id="4SpoR1ZruMtvJZLMEWSJ-108" value="" style="ellipse;html=1;shape=startState;fillColor=#000000;strokeColor=#000000;fontSize=20;strokeWidth=3;" parent="4SpoR1ZruMtvJZLMEWSJ-4" vertex="1">
          <mxGeometry x="285" y="40" width="50" height="50" as="geometry" />
        </mxCell>
        <mxCell id="4SpoR1ZruMtvJZLMEWSJ-110" value="Prepare Request" style="rounded=1;whiteSpace=wrap;html=1;fontSize=20;strokeWidth=3;" parent="4SpoR1ZruMtvJZLMEWSJ-4" vertex="1">
          <mxGeometry x="239.40999999999985" y="205" width="141.18" height="80" as="geometry" />
        </mxCell>
        <mxCell id="4SpoR1ZruMtvJZLMEWSJ-122" value="" style="endArrow=classic;html=1;rounded=0;exitX=0.5;exitY=1;exitDx=0;exitDy=0;entryX=0.5;entryY=0;entryDx=0;entryDy=0;strokeWidth=3;" parent="4SpoR1ZruMtvJZLMEWSJ-4" source="4SpoR1ZruMtvJZLMEWSJ-108" target="4SpoR1ZruMtvJZLMEWSJ-110" edge="1">
          <mxGeometry width="50" height="50" relative="1" as="geometry">
            <mxPoint x="750" y="370" as="sourcePoint" />
            <mxPoint x="800" y="320" as="targetPoint" />
          </mxGeometry>
        </mxCell>
        <mxCell id="4SpoR1ZruMtvJZLMEWSJ-114" value="" style="rounded=0;whiteSpace=wrap;html=1;fillColor=#000000;fontSize=20;strokeWidth=3;" parent="4SpoR1ZruMtvJZLMEWSJ-4" vertex="1">
          <mxGeometry x="280" y="390" width="60" height="10" as="geometry" />
        </mxCell>
        <mxCell id="4SpoR1ZruMtvJZLMEWSJ-116" value="" style="endArrow=classic;html=1;rounded=0;exitX=0.5;exitY=1;exitDx=0;exitDy=0;entryX=0.5;entryY=0;entryDx=0;entryDy=0;edgeStyle=orthogonalEdgeStyle;fontSize=20;strokeWidth=3;" parent="4SpoR1ZruMtvJZLMEWSJ-4" source="4SpoR1ZruMtvJZLMEWSJ-110" target="4SpoR1ZruMtvJZLMEWSJ-114" edge="1">
          <mxGeometry width="50" height="50" relative="1" as="geometry">
            <mxPoint x="700" y="220" as="sourcePoint" />
            <mxPoint x="800" y="265" as="targetPoint" />
          </mxGeometry>
        </mxCell>
        <mxCell id="4SpoR1ZruMtvJZLMEWSJ-109" value="Generate RSA Key Pairs&lt;br style=&quot;font-size: 20px;&quot;&gt;(only once)" style="rounded=1;whiteSpace=wrap;html=1;fontSize=20;strokeWidth=3;" parent="4SpoR1ZruMtvJZLMEWSJ-4" vertex="1">
          <mxGeometry x="390" y="205" width="150" height="80" as="geometry" />
        </mxCell>
        <mxCell id="4SpoR1ZruMtvJZLMEWSJ-113" value="" style="endArrow=classic;html=1;rounded=0;exitX=0.5;exitY=1;exitDx=0;exitDy=0;entryX=0.5;entryY=0;entryDx=0;entryDy=0;edgeStyle=orthogonalEdgeStyle;fontSize=20;strokeWidth=3;" parent="4SpoR1ZruMtvJZLMEWSJ-4" source="4SpoR1ZruMtvJZLMEWSJ-108" target="4SpoR1ZruMtvJZLMEWSJ-109" edge="1">
          <mxGeometry width="50" height="50" relative="1" as="geometry">
            <mxPoint x="949.9999999999995" y="240" as="sourcePoint" />
            <mxPoint x="999.9999999999995" y="190" as="targetPoint" />
          </mxGeometry>
        </mxCell>
        <mxCell id="4SpoR1ZruMtvJZLMEWSJ-115" value="" style="endArrow=classic;html=1;rounded=0;exitX=0.5;exitY=1;exitDx=0;exitDy=0;edgeStyle=orthogonalEdgeStyle;fontSize=20;entryX=1;entryY=0.5;entryDx=0;entryDy=0;strokeWidth=3;" parent="4SpoR1ZruMtvJZLMEWSJ-4" source="4SpoR1ZruMtvJZLMEWSJ-109" target="4SpoR1ZruMtvJZLMEWSJ-114" edge="1">
          <mxGeometry width="50" height="50" relative="1" as="geometry">
            <mxPoint x="949.9999999999995" y="240" as="sourcePoint" />
            <mxPoint x="160" y="350" as="targetPoint" />
            <Array as="points">
              <mxPoint x="465" y="395" />
            </Array>
          </mxGeometry>
        </mxCell>
        <mxCell id="4SpoR1ZruMtvJZLMEWSJ-111" value="Send get Ubuntu&#39;s RSA public key&lt;br style=&quot;font-size: 20px;&quot;&gt;request" style="rounded=1;whiteSpace=wrap;html=1;fontSize=20;strokeWidth=3;" parent="4SpoR1ZruMtvJZLMEWSJ-4" vertex="1">
          <mxGeometry x="29.41" y="115" width="210" height="90" as="geometry" />
        </mxCell>
        <mxCell id="4SpoR1ZruMtvJZLMEWSJ-121" value="" style="endArrow=classic;html=1;rounded=0;exitX=0.5;exitY=1;exitDx=0;exitDy=0;entryX=1;entryY=0.5;entryDx=0;entryDy=0;edgeStyle=orthogonalEdgeStyle;strokeWidth=3;" parent="4SpoR1ZruMtvJZLMEWSJ-4" source="4SpoR1ZruMtvJZLMEWSJ-108" target="4SpoR1ZruMtvJZLMEWSJ-111" edge="1">
          <mxGeometry width="50" height="50" relative="1" as="geometry">
            <mxPoint x="290" y="90" as="sourcePoint" />
            <mxPoint x="30" y="145" as="targetPoint" />
          </mxGeometry>
        </mxCell>
        <mxCell id="4SpoR1ZruMtvJZLMEWSJ-112" value="Receive Ubuntu RSA public key" style="rounded=1;whiteSpace=wrap;html=1;fontSize=20;strokeWidth=3;" parent="4SpoR1ZruMtvJZLMEWSJ-4" vertex="1">
          <mxGeometry x="50" y="220" width="155" height="80" as="geometry" />
        </mxCell>
        <mxCell id="4SpoR1ZruMtvJZLMEWSJ-117" value="" style="endArrow=classic;html=1;rounded=0;exitX=0.5;exitY=1;exitDx=0;exitDy=0;edgeStyle=orthogonalEdgeStyle;fontSize=20;entryX=0;entryY=0.5;entryDx=0;entryDy=0;strokeWidth=3;" parent="4SpoR1ZruMtvJZLMEWSJ-4" source="4SpoR1ZruMtvJZLMEWSJ-112" target="4SpoR1ZruMtvJZLMEWSJ-114" edge="1">
          <mxGeometry width="50" height="50" relative="1" as="geometry">
            <mxPoint x="770" y="230" as="sourcePoint" />
            <mxPoint x="350" y="490" as="targetPoint" />
          </mxGeometry>
        </mxCell>
        <mxCell id="4SpoR1ZruMtvJZLMEWSJ-127" value="Add Browser&#39;s RSA public key to request" style="rounded=1;whiteSpace=wrap;html=1;fontSize=20;strokeWidth=3;" parent="4SpoR1ZruMtvJZLMEWSJ-4" vertex="1">
          <mxGeometry x="235" y="460" width="150" height="85" as="geometry" />
        </mxCell>
        <mxCell id="4SpoR1ZruMtvJZLMEWSJ-128" value="Encrypt Request&lt;br&gt;with Web Server&#39;s RSA public key" style="rounded=1;whiteSpace=wrap;html=1;fontSize=20;strokeWidth=3;" parent="4SpoR1ZruMtvJZLMEWSJ-4" vertex="1">
          <mxGeometry x="210" y="620" width="200" height="100" as="geometry" />
        </mxCell>
        <mxCell id="4SpoR1ZruMtvJZLMEWSJ-129" value="Send Encrypted Request to Web Server" style="rounded=1;whiteSpace=wrap;html=1;fontSize=20;strokeWidth=3;" parent="4SpoR1ZruMtvJZLMEWSJ-4" vertex="1">
          <mxGeometry x="235" y="780" width="150" height="85" as="geometry" />
        </mxCell>
        <mxCell id="4SpoR1ZruMtvJZLMEWSJ-130" value="" style="endArrow=classic;html=1;rounded=0;exitX=0.5;exitY=1;exitDx=0;exitDy=0;entryX=0.5;entryY=0;entryDx=0;entryDy=0;strokeWidth=3;" parent="4SpoR1ZruMtvJZLMEWSJ-4" source="4SpoR1ZruMtvJZLMEWSJ-128" target="4SpoR1ZruMtvJZLMEWSJ-129" edge="1">
          <mxGeometry width="50" height="50" relative="1" as="geometry">
            <mxPoint x="1499.9999999999995" y="780" as="sourcePoint" />
            <mxPoint x="1549.9999999999995" y="730" as="targetPoint" />
          </mxGeometry>
        </mxCell>
        <mxCell id="4SpoR1ZruMtvJZLMEWSJ-145" value="" style="endArrow=classic;html=1;rounded=0;exitX=0.5;exitY=1;exitDx=0;exitDy=0;entryX=0.5;entryY=0;entryDx=0;entryDy=0;strokeWidth=3;" parent="4SpoR1ZruMtvJZLMEWSJ-4" source="4SpoR1ZruMtvJZLMEWSJ-114" target="4SpoR1ZruMtvJZLMEWSJ-127" edge="1">
          <mxGeometry width="50" height="50" relative="1" as="geometry">
            <mxPoint x="260" y="540" as="sourcePoint" />
            <mxPoint x="310" y="490" as="targetPoint" />
          </mxGeometry>
        </mxCell>
        <mxCell id="4SpoR1ZruMtvJZLMEWSJ-147" value="" style="endArrow=classic;html=1;rounded=0;exitX=0.5;exitY=1;exitDx=0;exitDy=0;entryX=0.5;entryY=0;entryDx=0;entryDy=0;strokeWidth=3;" parent="4SpoR1ZruMtvJZLMEWSJ-4" source="4SpoR1ZruMtvJZLMEWSJ-127" target="4SpoR1ZruMtvJZLMEWSJ-128" edge="1">
          <mxGeometry width="50" height="50" relative="1" as="geometry">
            <mxPoint x="260" y="540" as="sourcePoint" />
            <mxPoint x="310" y="490" as="targetPoint" />
          </mxGeometry>
        </mxCell>
        <mxCell id="4SpoR1ZruMtvJZLMEWSJ-131" value="Decrypt Execution Results" style="rounded=1;whiteSpace=wrap;html=1;fontSize=20;strokeWidth=3;" parent="4SpoR1ZruMtvJZLMEWSJ-4" vertex="1">
          <mxGeometry x="80" y="1532.5" width="150" height="85" as="geometry" />
        </mxCell>
        <mxCell id="4SpoR1ZruMtvJZLMEWSJ-132" value="Get Execution Results" style="rounded=1;whiteSpace=wrap;html=1;fontSize=20;strokeWidth=3;" parent="4SpoR1ZruMtvJZLMEWSJ-4" vertex="1">
          <mxGeometry x="290" y="1532.5" width="150" height="85" as="geometry" />
        </mxCell>
        <mxCell id="4SpoR1ZruMtvJZLMEWSJ-133" value="" style="endArrow=classic;html=1;rounded=0;exitX=1;exitY=0.5;exitDx=0;exitDy=0;entryX=0;entryY=0.5;entryDx=0;entryDy=0;strokeWidth=3;" parent="4SpoR1ZruMtvJZLMEWSJ-4" source="4SpoR1ZruMtvJZLMEWSJ-131" target="4SpoR1ZruMtvJZLMEWSJ-132" edge="1">
          <mxGeometry width="50" height="50" relative="1" as="geometry">
            <mxPoint x="1070" y="1730" as="sourcePoint" />
            <mxPoint x="1120" y="1680" as="targetPoint" />
          </mxGeometry>
        </mxCell>
        <mxCell id="4SpoR1ZruMtvJZLMEWSJ-134" value="" style="ellipse;html=1;shape=endState;fillColor=#000000;strokeColor=#000000;strokeWidth=3;" parent="4SpoR1ZruMtvJZLMEWSJ-4" vertex="1">
          <mxGeometry x="340" y="1820" width="50" height="50" as="geometry" />
        </mxCell>
        <mxCell id="4SpoR1ZruMtvJZLMEWSJ-135" value="" style="endArrow=classic;html=1;rounded=0;exitX=0.5;exitY=1;exitDx=0;exitDy=0;entryX=0.5;entryY=0;entryDx=0;entryDy=0;strokeWidth=3;" parent="4SpoR1ZruMtvJZLMEWSJ-4" source="4SpoR1ZruMtvJZLMEWSJ-132" target="4SpoR1ZruMtvJZLMEWSJ-134" edge="1">
          <mxGeometry width="50" height="50" relative="1" as="geometry">
            <mxPoint x="1290" y="1935" as="sourcePoint" />
            <mxPoint x="1200" y="1935" as="targetPoint" />
          </mxGeometry>
        </mxCell>
        <mxCell id="4SpoR1ZruMtvJZLMEWSJ-17" value="" style="endArrow=classic;html=1;rounded=0;exitX=1;exitY=0.5;exitDx=0;exitDy=0;entryX=0;entryY=0.5;entryDx=0;entryDy=0;fontSize=20;strokeWidth=3;" parent="4SpoR1ZruMtvJZLMEWSJ-1" source="4SpoR1ZruMtvJZLMEWSJ-10" target="4SpoR1ZruMtvJZLMEWSJ-12" edge="1">
          <mxGeometry width="50" height="50" relative="1" as="geometry">
            <mxPoint x="339.99999999999955" y="290" as="sourcePoint" />
            <mxPoint x="389.99999999999955" y="240" as="targetPoint" />
          </mxGeometry>
        </mxCell>
        <mxCell id="4SpoR1ZruMtvJZLMEWSJ-18" value="" style="endArrow=classic;html=1;rounded=0;exitX=0.5;exitY=1;exitDx=0;exitDy=0;entryX=1;entryY=0.5;entryDx=0;entryDy=0;edgeStyle=orthogonalEdgeStyle;fontSize=20;strokeWidth=3;" parent="4SpoR1ZruMtvJZLMEWSJ-1" source="4SpoR1ZruMtvJZLMEWSJ-12" target="4SpoR1ZruMtvJZLMEWSJ-13" edge="1">
          <mxGeometry width="50" height="50" relative="1" as="geometry">
            <mxPoint x="339.99999999999955" y="290" as="sourcePoint" />
            <mxPoint x="389.99999999999955" y="240" as="targetPoint" />
          </mxGeometry>
        </mxCell>
        <mxCell id="4SpoR1ZruMtvJZLMEWSJ-38" value="" style="endArrow=classic;html=1;rounded=0;exitX=1;exitY=0.5;exitDx=0;exitDy=0;entryX=0;entryY=0.5;entryDx=0;entryDy=0;strokeWidth=3;" parent="4SpoR1ZruMtvJZLMEWSJ-1" source="4SpoR1ZruMtvJZLMEWSJ-36" target="4SpoR1ZruMtvJZLMEWSJ-37" edge="1">
          <mxGeometry width="50" height="50" relative="1" as="geometry">
            <mxPoint x="639.9999999999995" y="360" as="sourcePoint" />
            <mxPoint x="689.9999999999995" y="310" as="targetPoint" />
          </mxGeometry>
        </mxCell>
        <mxCell id="4SpoR1ZruMtvJZLMEWSJ-44" value="" style="endArrow=classic;html=1;rounded=0;exitX=1;exitY=0.5;exitDx=0;exitDy=0;entryX=0;entryY=0.5;entryDx=0;entryDy=0;strokeWidth=3;" parent="4SpoR1ZruMtvJZLMEWSJ-1" source="4SpoR1ZruMtvJZLMEWSJ-37" target="4SpoR1ZruMtvJZLMEWSJ-43" edge="1">
          <mxGeometry width="50" height="50" relative="1" as="geometry">
            <mxPoint x="580" y="625" as="sourcePoint" />
            <mxPoint x="755" y="625" as="targetPoint" />
          </mxGeometry>
        </mxCell>
        <mxCell id="4SpoR1ZruMtvJZLMEWSJ-46" value="" style="endArrow=classic;html=1;rounded=0;exitX=0.5;exitY=1;exitDx=0;exitDy=0;entryX=1;entryY=0.5;entryDx=0;entryDy=0;edgeStyle=orthogonalEdgeStyle;strokeWidth=3;" parent="4SpoR1ZruMtvJZLMEWSJ-1" source="4SpoR1ZruMtvJZLMEWSJ-43" target="4SpoR1ZruMtvJZLMEWSJ-45" edge="1">
          <mxGeometry width="50" height="50" relative="1" as="geometry">
            <mxPoint x="995" y="625" as="sourcePoint" />
            <mxPoint x="1295" y="625" as="targetPoint" />
          </mxGeometry>
        </mxCell>
        <mxCell id="4SpoR1ZruMtvJZLMEWSJ-48" value="" style="endArrow=classic;html=1;rounded=0;exitX=0;exitY=0.5;exitDx=0;exitDy=0;entryX=1;entryY=0.5;entryDx=0;entryDy=0;strokeWidth=3;" parent="4SpoR1ZruMtvJZLMEWSJ-1" source="4SpoR1ZruMtvJZLMEWSJ-45" target="4SpoR1ZruMtvJZLMEWSJ-47" edge="1">
          <mxGeometry width="50" height="50" relative="1" as="geometry">
            <mxPoint x="639.9999999999995" y="710" as="sourcePoint" />
            <mxPoint x="689.9999999999995" y="660" as="targetPoint" />
          </mxGeometry>
        </mxCell>
        <mxCell id="4SpoR1ZruMtvJZLMEWSJ-57" value="" style="endArrow=classic;html=1;rounded=0;exitX=1;exitY=0.5;exitDx=0;exitDy=0;entryX=0;entryY=0.5;entryDx=0;entryDy=0;strokeWidth=3;" parent="4SpoR1ZruMtvJZLMEWSJ-1" source="4SpoR1ZruMtvJZLMEWSJ-32" target="4SpoR1ZruMtvJZLMEWSJ-55" edge="1">
          <mxGeometry width="50" height="50" relative="1" as="geometry">
            <mxPoint x="709.9999999999995" y="1110" as="sourcePoint" />
            <mxPoint x="629.9999999999995" y="1110" as="targetPoint" />
          </mxGeometry>
        </mxCell>
        <mxCell id="4SpoR1ZruMtvJZLMEWSJ-87" value="" style="endArrow=classic;html=1;rounded=0;exitX=0;exitY=0.5;exitDx=0;exitDy=0;entryX=1;entryY=0.5;entryDx=0;entryDy=0;strokeWidth=3;" parent="4SpoR1ZruMtvJZLMEWSJ-1" source="4SpoR1ZruMtvJZLMEWSJ-84" target="4SpoR1ZruMtvJZLMEWSJ-85" edge="1">
          <mxGeometry width="50" height="50" relative="1" as="geometry">
            <mxPoint x="170" y="1880" as="sourcePoint" />
            <mxPoint x="220" y="1830" as="targetPoint" />
            <Array as="points">
              <mxPoint x="590" y="2075" />
            </Array>
          </mxGeometry>
        </mxCell>
        <mxCell id="4SpoR1ZruMtvJZLMEWSJ-94" value="" style="endArrow=classic;html=1;rounded=0;exitX=1;exitY=0.5;exitDx=0;exitDy=0;entryX=0;entryY=0.5;entryDx=0;entryDy=0;strokeWidth=3;" parent="4SpoR1ZruMtvJZLMEWSJ-1" source="4SpoR1ZruMtvJZLMEWSJ-73" target="4SpoR1ZruMtvJZLMEWSJ-72" edge="1">
          <mxGeometry width="50" height="50" relative="1" as="geometry">
            <mxPoint x="940" y="1520" as="sourcePoint" />
            <mxPoint x="990" y="1470" as="targetPoint" />
          </mxGeometry>
        </mxCell>
        <mxCell id="4SpoR1ZruMtvJZLMEWSJ-95" value="" style="endArrow=classic;html=1;rounded=0;exitX=0.5;exitY=1;exitDx=0;exitDy=0;entryX=1;entryY=0.5;entryDx=0;entryDy=0;edgeStyle=orthogonalEdgeStyle;strokeWidth=3;" parent="4SpoR1ZruMtvJZLMEWSJ-1" source="4SpoR1ZruMtvJZLMEWSJ-72" target="4SpoR1ZruMtvJZLMEWSJ-76" edge="1">
          <mxGeometry width="50" height="50" relative="1" as="geometry">
            <mxPoint x="940" y="1400" as="sourcePoint" />
            <mxPoint x="990" y="1350" as="targetPoint" />
          </mxGeometry>
        </mxCell>
        <mxCell id="4SpoR1ZruMtvJZLMEWSJ-99" value="" style="endArrow=classic;html=1;rounded=0;exitX=1;exitY=0.5;exitDx=0;exitDy=0;entryX=0;entryY=0.5;entryDx=0;entryDy=0;strokeWidth=3;" parent="4SpoR1ZruMtvJZLMEWSJ-1" source="4SpoR1ZruMtvJZLMEWSJ-78" target="4SpoR1ZruMtvJZLMEWSJ-79" edge="1">
          <mxGeometry width="50" height="50" relative="1" as="geometry">
            <mxPoint x="940" y="1760" as="sourcePoint" />
            <mxPoint x="990" y="1710" as="targetPoint" />
          </mxGeometry>
        </mxCell>
        <mxCell id="4SpoR1ZruMtvJZLMEWSJ-106" value="" style="endArrow=classic;html=1;rounded=0;exitX=0;exitY=0.5;exitDx=0;exitDy=0;entryX=1;entryY=0.5;entryDx=0;entryDy=0;strokeWidth=3;" parent="4SpoR1ZruMtvJZLMEWSJ-1" source="4SpoR1ZruMtvJZLMEWSJ-93" target="4SpoR1ZruMtvJZLMEWSJ-105" edge="1">
          <mxGeometry width="50" height="50" relative="1" as="geometry">
            <mxPoint x="940" y="2080" as="sourcePoint" />
            <mxPoint x="990" y="2030" as="targetPoint" />
          </mxGeometry>
        </mxCell>
        <mxCell id="4SpoR1ZruMtvJZLMEWSJ-120" value="" style="endArrow=classic;html=1;rounded=0;exitX=0.5;exitY=1;exitDx=0;exitDy=0;entryX=0;entryY=0.5;entryDx=0;entryDy=0;edgeStyle=orthogonalEdgeStyle;fontSize=20;strokeWidth=3;" parent="4SpoR1ZruMtvJZLMEWSJ-1" source="4SpoR1ZruMtvJZLMEWSJ-118" target="4SpoR1ZruMtvJZLMEWSJ-112" edge="1">
          <mxGeometry width="50" height="50" relative="1" as="geometry">
            <mxPoint x="2549.9999999999995" y="270" as="sourcePoint" />
            <mxPoint x="2599.9999999999995" y="220" as="targetPoint" />
          </mxGeometry>
        </mxCell>
        <mxCell id="4SpoR1ZruMtvJZLMEWSJ-126" value="" style="endArrow=classic;html=1;rounded=0;exitX=0;exitY=0.5;exitDx=0;exitDy=0;entryX=1;entryY=0.5;entryDx=0;entryDy=0;strokeWidth=3;" parent="4SpoR1ZruMtvJZLMEWSJ-1" source="4SpoR1ZruMtvJZLMEWSJ-111" target="4SpoR1ZruMtvJZLMEWSJ-118" edge="1">
          <mxGeometry width="50" height="50" relative="1" as="geometry">
            <mxPoint x="1740" y="170" as="sourcePoint" />
            <mxPoint x="1790" y="120" as="targetPoint" />
          </mxGeometry>
        </mxCell>
        <mxCell id="4SpoR1ZruMtvJZLMEWSJ-142" value="" style="endArrow=classic;html=1;rounded=0;entryX=1;entryY=0.5;entryDx=0;entryDy=0;exitX=0;exitY=0.5;exitDx=0;exitDy=0;strokeWidth=3;" parent="4SpoR1ZruMtvJZLMEWSJ-1" source="4SpoR1ZruMtvJZLMEWSJ-129" target="4SpoR1ZruMtvJZLMEWSJ-136" edge="1">
          <mxGeometry width="50" height="50" relative="1" as="geometry">
            <mxPoint x="1830" y="1020" as="sourcePoint" />
            <mxPoint x="3189.9999999999995" y="980" as="targetPoint" />
          </mxGeometry>
        </mxCell>
        <mxCell id="4SpoR1ZruMtvJZLMEWSJ-143" value="" style="endArrow=classic;html=1;rounded=0;exitX=1;exitY=0.5;exitDx=0;exitDy=0;entryX=0;entryY=0.5;entryDx=0;entryDy=0;strokeWidth=3;" parent="4SpoR1ZruMtvJZLMEWSJ-1" source="4SpoR1ZruMtvJZLMEWSJ-141" target="4SpoR1ZruMtvJZLMEWSJ-131" edge="1">
          <mxGeometry width="50" height="50" relative="1" as="geometry">
            <mxPoint x="2730" y="1750" as="sourcePoint" />
            <mxPoint x="2780" y="1700" as="targetPoint" />
            <Array as="points" />
          </mxGeometry>
        </mxCell>
      </root>
    </mxGraphModel>
  </diagram>
</mxfile>
